<svg xmlns="http://www.w3.org/2000/svg" width="960" height="654.254" viewBox="0 0 960 654.254" xmlns:xlink="http://www.w3.org/1999/xlink" role="img" artist="Katerina Limpitsouni" source="https://undraw.co/"><g transform="translate(-601.659 -325.936)"><path d="M112.069,92.169c-4.668-4.5-4.762-11.826-4.538-18.31q.5-14.459,1.011-28.916c.163-4.91.311-9.985-1.46-14.576a14.212,14.212,0,0,0-6.526-7.5A42.8,42.8,0,1,1,23.526,59.332q.144,4,.28,7.992c.224,6.484.13,13.806-4.54,18.31C14.848,89.888,7.838,89.991,1.9,88.47s3.362-9.2,9.776-17.757A31.6,31.6,0,0,0,16.087,40.9c-1.771-4.849-4.695-9.181-6.891-13.849S5.557,17.03,6.966,12.067C8.7,6,14.539,1.719,20.719.475S33.351.587,39.264,2.783a67.522,67.522,0,0,1,6.754,2.938A42.851,42.851,0,0,1,89.343,10.4q1.349-.569,2.724-1.079c5.92-2.2,12.359-3.552,18.541-2.307S122.641,12.533,124.37,18.6c1.409,4.962-.051,10.3-2.239,14.982s-5.111,9-6.88,13.85a31.6,31.6,0,0,0,4.4,29.816c6.423,8.558,15.723,16.234,9.787,17.756a27.525,27.525,0,0,1-6.752.894C118.729,95.9,114.876,94.871,112.069,92.169ZM24.248,23.832a25.968,25.968,0,0,0-1.525,8.636,42.726,42.726,0,0,1,9.505-16.737C28.612,16.907,25.662,20.192,24.248,23.832Z" transform="translate(1387.472 562.035)" fill="#2f2e41"/><path d="M20.722,83.108l1.206-15.221a35.243,35.243,0,1,1,27.827-.522V83.108Z" transform="translate(1414.315 579.204)" fill="#9f616a"/><path d="M836.026,411.554A94.3,94.3,0,0,0,880.6,428.4l-4.7-6.458a30.7,30.7,0,0,0,10.666,2.429,11.167,11.167,0,0,0,9.521-5.112,14.075,14.075,0,0,0,.727-11.513,23.332,23.332,0,0,0-6.474-9.285c-10.128-9.19-23.6-11.951-35.873-7.354a22.956,22.956,0,0,0-10.714,7.884c-2.708,3.832-7.921,7.246-6.535,11.915Z" transform="translate(588.154 181.584)" fill="#2f2e41"/><path d="M18.112,97.378V69.66a37.532,37.532,0,1,1,33.62,2.634V97.378Z" transform="translate(683.401 434.958)" fill="#ed9da0"/><path d="M988.528,574.941c0-11.816-44.472-21.394-99.331-21.394s-99.331,9.579-99.331,21.394c0,7.573,18.284,14.222,45.845,18.024v117.22a9.933,9.933,0,1,0,19.866,0V595.076c10.5.814,21.818,1.259,33.62,1.259s23.118-.446,33.62-1.259V710.184a9.933,9.933,0,1,0,19.866,0V592.965C970.244,589.162,988.528,582.514,988.528,574.941Z" transform="translate(554.088 257.754)" fill="#e6e6e6"/><path d="M595.461,440.01H576.725l-8.912-72.264h27.651Z" transform="translate(752.323 520.17)" fill="#9f616a"/><path d="M572.751,411.531h36.132v22.75H550A22.75,22.75,0,0,1,572.751,411.531Z" transform="translate(742.916 543.296)" fill="#2f2e41"/><path d="M572.947,434.884l-17.877-5.61,13.13-71.618,26.382,8.278Z" transform="translate(745.593 514.841)" fill="#9f616a"/><path d="M22.75,0H58.882V22.75H0A22.75,22.75,0,0,1,22.75,0Z" transform="translate(1267.787 928.189) rotate(17.423)" fill="#2f2e41"/><path d="M784.358,677.481a6.816,6.816,0,0,1-2.4-.437l-13.783-5.168a6.9,6.9,0,0,1-4.3-7.922c3.47-15.6,15.3-68.723,21.772-97.215,7.68-33.8,119.721-40.076,124.487-40.327l.392-.021,12.6,15.838c4.554,14.639,3.111,26.057-4.29,33.938-21.6,22.994-86.078,8.726-93.767,6.92L790.8,673.053A6.9,6.9,0,0,1,784.358,677.481Z" transform="translate(540.276 243.411)" fill="#2f2e41"/><path d="M797.358,684.48a6.813,6.813,0,0,1-2.4-.437l-13.783-5.168a6.9,6.9,0,0,1-4.3-7.921c3.47-15.6,15.3-68.723,21.772-97.215,7.68-33.8,119.721-40.076,124.487-40.326l.392-.021,12.6,15.839c4.554,14.638,3.111,26.056-4.291,33.938-21.6,22.993-86.078,8.726-93.767,6.92L803.8,680.053A6.9,6.9,0,0,1,797.358,684.48Z" transform="translate(547.142 247.108)" fill="#2f2e41"/><path d="M774.089,490.435a16.044,16.044,0,0,1,1.352,2.142l75.37,7.941,10.85-14.875,24.589,13.439-21.31,36.1-92.435-23.568a16.039,16.039,0,1,1,1.584-21.176Z" transform="translate(530.534 221.066)" fill="#a0616a"/><path d="M906.694,599.271a6.879,6.879,0,0,1-3.132-.765c-15.071-7.663-44.419-20.935-71.632-23.712a6.712,6.712,0,0,1-4.73-2.674,6.9,6.9,0,0,1-1.274-5.365c2.456-13.594,8.089-48.209,7.363-75.952a37.588,37.588,0,0,1,28.4-37.391h0a122.073,122.073,0,0,1,15.149-2.986,37.892,37.892,0,0,1,42.115,43.953c-4.853,28.75-9.745,68.905-5.493,96.936a6.888,6.888,0,0,1-2.779,6.646,6.767,6.767,0,0,1-3.982,1.312Z" transform="translate(573.077 203.129)" fill="#6c63ff"/><path d="M840.781,521.911a6.871,6.871,0,0,1-2.73-.57l-19.634-8.5a6.885,6.885,0,0,1-3.579-9.042l15.177-35.06A17.574,17.574,0,0,1,862.27,482.7l-15.177,35.06a6.893,6.893,0,0,1-6.313,4.15Z" transform="translate(566.98 207.363)" fill="#6c63ff"/><path d="M825.542,569.531a16.817,16.817,0,1,1,6.482-32.342h0a16.166,16.166,0,0,1,2,1.016l68.372-30.7,1.921-18.543,29.472-.789-.2,30.872a16.627,16.627,0,0,1-12.013,15.805l-79.957,22.759a15.66,15.66,0,0,1-.549,1.557A16.879,16.879,0,0,1,825.542,569.531Z" transform="translate(564.059 223.227)" fill="#9f616a"/><path d="M900.59,519.227a6.871,6.871,0,0,1-2.693.728l-21.354,1.313a6.886,6.886,0,0,1-7.286-6.441l-2.344-38.132a17.574,17.574,0,1,1,35.081-2.158l2.344,38.132a6.893,6.893,0,0,1-3.749,6.559Z" transform="translate(594.766 207.31)" fill="#6c63ff"/><path d="M5.349,0H126.074a5.349,5.349,0,0,1,5.349,5.349h0a5.349,5.349,0,0,1-5.349,5.349H5.349A5.349,5.349,0,0,1,0,5.349H0A5.349,5.349,0,0,1,5.349,0Z" transform="translate(1454.294 796.614) rotate(180)" fill="#3f3d56"/><path d="M745.07,566.75v-74.88A9.944,9.944,0,0,1,755,481.936H891.01a9.944,9.944,0,0,1,9.933,9.933v74.88a9.944,9.944,0,0,1-9.933,9.933H755a9.945,9.945,0,0,1-9.933-9.933Z" transform="translate(530.429 219.931)" fill="#3f3d56"/><circle cx="9.169" cy="9.169" r="9.169" transform="translate(1344.267 740.071)" fill="#fff"/><path d="M508.111,464.851a15.367,15.367,0,0,0-23.412-2.665l-48.526-25.047,3.017,28.217,45.619,19.459a15.45,15.45,0,0,0,23.3-19.964Z" transform="translate(367.277 196.27)" fill="#ed9da0"/><path d="M495.272,511.615a6.885,6.885,0,0,1-5.607.06L443.572,491.68a70.867,70.867,0,0,1-35.854-34.686l-24.232-51.15a22.153,22.153,0,0,1,35-27.172L461.077,457.7l39.33,29.71a6.9,6.9,0,0,1,2.425,7.521l-3.86,12.469a6.886,6.886,0,0,1-2.329,3.38,6.807,6.807,0,0,1-1.371.836Z" transform="translate(336.99 160.864)" fill="#e6e6e6"/><path d="M184.663,440.8H203.4l8.914-72.264H184.658Z" transform="translate(549.951 520.589)" fill="#ed9da0"/><path d="M0,0H58.882V22.75H22.75A22.75,22.75,0,0,1,0,0Z" transform="translate(789.475 978.789) rotate(179.997)" fill="#2f2e41"/><path d="M144.663,440.8H163.4l8.914-72.264H144.658Z" transform="translate(528.824 520.589)" fill="#ed9da0"/><path d="M0,0H58.882V22.75H22.75A22.75,22.75,0,0,1,0,0Z" transform="translate(728.348 978.789) rotate(179.997)" fill="#2f2e41"/><path d="M347.435,725.136a6.875,6.875,0,0,1-1.643-5.438l32.8-246.014,81.5,13.84,8.7-5.219L446.3,715.725a6.9,6.9,0,0,1-6.26,6.058l-24.677,2.056a6.875,6.875,0,0,1-7.437-7.247l6.389-111.163a.764.764,0,0,0-1.5-.245L381.2,722.4a6.889,6.889,0,0,1-6.64,5.088H352.609a6.875,6.875,0,0,1-5.174-2.348Z" transform="translate(319.509 215.572)" fill="#2f2e41"/><path d="M403.258,549.567a5.4,5.4,0,0,0-6.9-.288l-16.293,12.673a6.871,6.871,0,0,1-10.831-3.525c-7.992-27.989-26.1-98.442-21.638-148.028,2.528-28.107,26.8-49.469,54.105-47.676,18.668,1.245,30.949,12.013,36.5,32.007,13.635,49.088,28.62,139.131,31.485,156.684a6.847,6.847,0,0,1-3.265,7.013,50.338,50.338,0,0,1-25.508,7.178C430.035,565.6,416.99,561.816,403.258,549.567Z" transform="translate(320.125 156.91)" fill="#e6e6e6"/><path d="M406.653,519.26a15.367,15.367,0,0,0-16.777-16.545l-22.727-49.655-15.04,24.065L376,520.588a15.45,15.45,0,0,0,30.657-1.328Z" transform="translate(322.877 204.679)" fill="#ed9da0"/><path d="M373.776,545.04a6.885,6.885,0,0,1-4.449-3.413L345.4,497.448a70.867,70.867,0,0,1-6.807-49.419l12.5-55.2a22.153,22.153,0,0,1,44.306.216l-15.253,88.47,12.613,47.649a6.9,6.9,0,0,1-2.733,7.414l-10.732,7.429a6.885,6.885,0,0,1-3.918,1.222A6.808,6.808,0,0,1,373.776,545.04Z" transform="translate(314.811 161.222)" fill="#e6e6e6"/><path d="M580.607,462.989a6.6,6.6,0,0,1-1.234-5.662,156.377,156.377,0,0,0,0-72.627,6.6,6.6,0,0,1,1.234-5.662,6.492,6.492,0,0,1,5.127-2.484h60.932a6.574,6.574,0,0,1,6.475,5.51,255.951,255.951,0,0,1,0,77.9,6.574,6.574,0,0,1-6.475,5.51H585.734a6.492,6.492,0,0,1-5.127-2.484Z" transform="translate(442.812 164.27)" fill="#e6e6e6"/><path d="M518.925,322.37a6.6,6.6,0,0,1-1.233-5.661,156.383,156.383,0,0,0,0-72.627,6.6,6.6,0,0,1,1.233-5.661,6.49,6.49,0,0,1,5.127-2.485h60.932a6.575,6.575,0,0,1,6.475,5.51,255.951,255.951,0,0,1,0,77.9,6.575,6.575,0,0,1-6.475,5.51H524.053A6.49,6.49,0,0,1,518.925,322.37Z" transform="translate(410.234 90)" fill="#e6e6e6"/><path d="M617.576,368.363a255.943,255.943,0,0,1,0-77.9,6.574,6.574,0,0,1,6.475-5.51h60.932a6.49,6.49,0,0,1,5.128,2.485,6.6,6.6,0,0,1,1.234,5.661,156.376,156.376,0,0,0,0,72.627,6.6,6.6,0,0,1-1.233,5.661,6.49,6.49,0,0,1-5.128,2.485H624.05a6.574,6.574,0,0,1-6.475-5.51Z" transform="translate(461.515 115.89)" fill="#6c63ff"/><path d="M450.653,366.583a255.98,255.98,0,0,1,0-77.9,6.575,6.575,0,0,1,6.475-5.51H518.06a6.489,6.489,0,0,1,5.127,2.485,6.6,6.6,0,0,1,1.234,5.661,156.375,156.375,0,0,0,0,72.627,6.6,6.6,0,0,1-1.233,5.661,6.489,6.489,0,0,1-5.128,2.485H457.128A6.575,6.575,0,0,1,450.653,366.583Z" transform="translate(373.351 114.95)" fill="#ff6584"/><path d="M459.984,485.791a6.71,6.71,0,0,1-1.254-5.755,158.933,158.933,0,0,0,0-73.82,6.712,6.712,0,0,1,1.255-5.755,6.6,6.6,0,0,1,5.212-2.525h61.933a6.682,6.682,0,0,1,6.581,5.6,260.148,260.148,0,0,1,0,79.179,6.682,6.682,0,0,1-6.581,5.6H465.2a6.6,6.6,0,0,1-5.212-2.525Z" transform="translate(379.09 175.564)" fill="#6c63ff"/><path d="M219.332,665.322h957.053a1.86,1.86,0,0,0,0-3.639H219.332a1.86,1.86,0,0,0,0,3.639Z" transform="translate(383.801 314.868)" fill="#e6e6e6"/><path d="M508.462,423.6H475.837a4.589,4.589,0,0,1-4.584-4.584v-1.947a4.589,4.589,0,0,1,4.585-4.585h32.625a4.589,4.589,0,0,1,4.585,4.585v1.947a4.589,4.589,0,0,1-4.585,4.585Z" transform="translate(385.805 183.248)" fill="#fff"/><path d="M508.462,436.147H475.837a4.589,4.589,0,0,1-4.584-4.585v-1.947a4.59,4.59,0,0,1,4.585-4.585h32.625a4.589,4.589,0,0,1,4.585,4.585v1.947a4.589,4.589,0,0,1-4.585,4.585Z" transform="translate(385.805 189.875)" fill="#fff"/><path d="M494.1,311.638H462.123a4.589,4.589,0,0,1-4.584-4.585v-1.791a4.59,4.59,0,0,1,4.585-4.585H494.1a4.59,4.59,0,0,1,4.585,4.585v1.791A4.59,4.59,0,0,1,494.1,311.638Z" transform="translate(378.562 124.195)" fill="#fff"/><path d="M627.777,399.768H595.8a4.59,4.59,0,0,1-4.585-4.585v-1.792a4.59,4.59,0,0,1,4.585-4.585h31.974a4.589,4.589,0,0,1,4.585,4.585v1.792a4.59,4.59,0,0,1-4.585,4.585Z" transform="translate(449.168 170.743)" fill="#fff"/><path d="M627.777,414.581H595.8A4.589,4.589,0,0,1,591.218,410v-1.792a4.59,4.59,0,0,1,4.585-4.585h31.974a4.589,4.589,0,0,1,4.585,4.584V410a4.589,4.589,0,0,1-4.585,4.584Z" transform="translate(449.168 178.567)" fill="#fff"/><path d="M627.777,429.395H595.8a4.589,4.589,0,0,1-4.585-4.584v-1.792a4.59,4.59,0,0,1,4.585-4.585h31.974a4.59,4.59,0,0,1,4.585,4.585v1.792a4.59,4.59,0,0,1-4.585,4.585Z" transform="translate(449.168 186.391)" fill="#fff"/><path d="M494.1,323.983H462.123a4.589,4.589,0,0,1-4.584-4.585v-1.792a4.59,4.59,0,0,1,4.585-4.585H494.1a4.59,4.59,0,0,1,4.585,4.585V319.4A4.59,4.59,0,0,1,494.1,323.983Z" transform="translate(378.562 130.715)" fill="#fff"/><path d="M566.275,261.619H534.3a4.59,4.59,0,0,1-4.585-4.585v-1.792a4.59,4.59,0,0,1,4.585-4.585h31.974a4.59,4.59,0,0,1,4.585,4.585v1.792a4.59,4.59,0,0,1-4.585,4.585Z" transform="translate(416.684 97.776)" fill="#fff"/><path d="M661.749,314.653H629.774a4.59,4.59,0,0,1-4.585-4.585v-1.792a4.59,4.59,0,0,1,4.585-4.585h31.975a4.589,4.589,0,0,1,4.584,4.585v1.792A4.589,4.589,0,0,1,661.749,314.653Z" transform="translate(467.111 125.787)" fill="#fff"/><path d="M269.738,57.267s14.235,12.88,28.811,10.846S315.835,61,315.835,58.962c0,0,0,.678-4.067,2.034L310.073,46.42s-2.034,3.823-9.491,5.131c0,0,6.44-2.691,0-7.979,0,0-3.389,2.847-6.44,2.847,0,0-16.948-23.049-50.5-8.474l-3.051,1.695L236.65,39.3l-3.86-.336s-8.472,9.831-7.794,16.61-12.18,40.829,10.01,51.259c0,0-5.265-30.243,3.887-23.126s14.914-4.067,14.914-4.067l15.931-22.371Z" transform="translate(457.9 391.759)" fill="#090814"/></g></svg>